0
SECTION
2
HEADER
9
$INSUNITS
70
4
9
$ACADVER
1
AC1014
9
$HANDSEED
5
FFFF
0
ENDSEC
0
SECTION
2
TABLES
0
TABLE
2
VPORT
5
8
100
AcDbSymbolTable
0
ENDTAB
0
TABLE
2
LTYPE
5
5
100
AcDbSymbolTable
0
LTYPE
5
14
100
AcDbSymbolTableRecord
100
AcDbLinetypeTableRecord
2
BYBLOCK
70
0
0
LTYPE
5
15
100
AcDbSymbolTableRecord
100
AcDbLinetypeTableRecord
2
BYLAYER
70
0
0
ENDTAB
0
TABLE
2
LAYER
5
2
100
AcDbSymbolTable
70
2
0
LAYER
5
50
100
AcDbSymbolTableRecord
100
AcDbLayerTableRecord
2
0
70
0
6
CONTINUOUS
0
ENDTAB
0
TABLE
2
STYLE
5
3
100
AcDbSymbolTable
70
1
0
STYLE
5
11
100
AcDbSymbolTableRecord
100
AcDbTextStyleTableRecord
2
STANDARD
70
0
0
ENDTAB
0
TABLE
2
VIEW
5
6
100
AcDbSymbolTable
70
0
0
ENDTAB
0
TABLE
2
UCS
5
7
100
AcDbSymbolTable
70
0
0
ENDTAB
0
TABLE
2
APPID
5
9
100
AcDbSymbolTable
70
2
0
APPID
5
12
100
AcDbSymbolTableRecord
100
AcDbRegAppTableRecord
2
ACAD
70
0
0
ENDTAB
0
TABLE
2
DIMSTYLE
5
A
100
AcDbSymbolTable
70
1
0
ENDTAB
0
TABLE
2
BLOCK_RECORD
5
1
100
AcDbSymbolTable
70
1
0
BLOCK_RECORD
5
1F
100
AcDbSymbolTableRecord
100
AcDbBlockTableRecord
2
*MODEL_SPACE
0
BLOCK_RECORD
5
1B
100
AcDbSymbolTableRecord
100
AcDbBlockTableRecord
2
*PAPER_SPACE
0
ENDTAB
0
ENDSEC
0
SECTION
2
BLOCKS
0
BLOCK
5
20
100
AcDbEntity
100
AcDbBlockBegin
2
*MODEL_SPACE
0
ENDBLK
5
21
100
AcDbEntity
100
AcDbBlockEnd
0
BLOCK
5
1C
100
AcDbEntity
100
AcDbBlockBegin
2
*PAPER_SPACE
0
ENDBLK
5
1D
100
AcDbEntity
100
AcDbBlockEnd
0
ENDSEC
0
SECTION
2
ENTITIES
0
LWPOLYLINE
5
100
100
AcDbEntity
8
0
100
AcDbPolyline
90
10
70
1
43
0.0
10
5.5633463308260556
20
-5.4797911922331384
10
-0.55650757770986381
20
-9.7370808677363883
10
2.9690604348162619
20
-11.333564496050105
10
7.7585113197574174
20
-8.4731979953213603
10
9.4215150992508754
20
-8.8723189023997904
10
9.0223941921724453
20
-10.535322681893247
10
5.3637858772868396
20
-12.720324869949927
10
7.193090034729642
20
-15.783345784737877
10
11.949280844080924
20
-12.720324869949927
10
7.5285850272643362
20
-5.3182295487686559
0
LINE
5
101
100
AcDbEntity
8
0
100
AcDbLine
10
11.151039029924066
20
-5.6460915701824854
30
0
11
10.253016988997601
21
-7.275835274086071
31
0
0
LINE
5
102
100
AcDbEntity
8
0
100
AcDbLine
10
10.253016988997601
20
-7.275835274086071
30
0
11
16.000000238418579
21
-11.000000163912773
31
0
0
LINE
5
103
100
AcDbEntity
8
0
100
AcDbLine
10
16.000000238418579
20
-11.000000163912773
30
0
11
17.00000025331974
21
-15.000000223517418
31
0
0
LINE
5
104
100
AcDbEntity
8
0
100
AcDbLine
10
17.00000025331974
20
-15.000000223517418
30
0
11
14.044665606242681
21
-14.326971299138325
31
0
0
LINE
5
105
100
AcDbEntity
8
0
100
AcDbLine
10
14.044665606242681
20
-14.326971299138325
30
0
11
9.1886945701217915
21
-17.253857951046811
31
0
0
LINE
5
106
100
AcDbEntity
8
0
100
AcDbLine
10
9.1886945701217915
20
-17.253857951046811
30
0
11
12.980343187366866
21
-19.482283015568036
31
0
0
LINE
5
107
100
AcDbEntity
8
0
100
AcDbLine
10
12.980343187366866
20
-19.482283015568036
30
0
11
19.712530424229854
21
-15.424526324856096
31
0
0
LINE
5
108
100
AcDbEntity
8
0
100
AcDbLine
10
19.712530424229854
20
-15.424526324856096
30
0
11
21.328622160424015
21
-15.790414625092568
31
0
0
LINE
5
109
100
AcDbEntity
8
0
100
AcDbLine
10
21.328622160424015
20
-15.790414625092568
30
0
11
20.952115934142661
21
-17.453404670212066
31
0
0
LINE
5
110
100
AcDbEntity
8
0
100
AcDbLine
10
20.952115934142661
20
-17.453404670212066
30
0
11
15.679175262865108
21
-20.631615485776624
31
0
0
LINE
5
111
100
AcDbEntity
8
0
100
AcDbLine
10
15.679175262865108
20
-20.631615485776624
30
0
11
23.586071658938117
21
-24.239145917257613
31
0
0
LINE
5
112
100
AcDbEntity
8
0
100
AcDbLine
10
23.586071658938117
20
-24.239145917257613
30
0
11
26.759845340569349
21
-28.757126937559924
31
0
0
LINE
5
113
100
AcDbEntity
8
0
100
AcDbLine
10
26.759845340569349
20
-28.757126937559924
30
0
11
21.399999521672726
21
-28.599999360740185
31
0
0
LINE
5
114
100
AcDbEntity
8
0
100
AcDbLine
10
21.399999521672726
20
-28.599999360740185
30
0
11
14.071806065724509
21
-23.272617226032676
31
0
0
LINE
5
115
100
AcDbEntity
8
0
100
AcDbLine
10
14.071806065724509
20
-23.272617226032676
30
0
11
14.071806065724509
21
-29.331786719259153
31
0
0
LINE
5
116
100
AcDbEntity
8
0
100
AcDbLine
10
14.071806065724509
20
-29.331786719259153
30
0
11
12.987120637617712
21
-30.82384875930483
31
0
0
LINE
5
117
100
AcDbEntity
8
0
100
AcDbLine
10
12.987120637617712
20
-30.82384875930483
30
0
11
11.639575682437112
21
-29.483627921757837
31
0
0
LINE
5
118
100
AcDbEntity
8
0
100
AcDbLine
10
11.639575682437112
20
-29.483627921757837
30
0
11
11.639575682437112
21
-21.504456932597641
31
0
0
LINE
5
119
100
AcDbEntity
8
0
100
AcDbLine
10
11.639575682437112
20
-21.504456932597641
30
0
11
8.0000001192092896
21
-19.500000290572643
31
0
0
LINE
5
120
100
AcDbEntity
8
0
100
AcDbLine
10
8.0000001192092896
20
-19.500000290572643
30
0
11
8.0000001192092896
21
-25.494042427177739
31
0
0
LINE
5
121
100
AcDbEntity
8
0
100
AcDbLine
10
8.0000001192092896
20
-25.494042427177739
30
0
11
9.6436196188809564
21
-27.207671203827655
31
0
0
LINE
5
122
100
AcDbEntity
8
0
100
AcDbLine
10
9.6436196188809564
20
-27.207671203827655
30
0
11
5.6993116562759329
21
-28.606720609367041
31
0
0
LINE
5
123
100
AcDbEntity
8
0
100
AcDbLine
10
5.6993116562759329
20
-28.606720609367041
30
0
11
0.38966632199993967
21
-25.65691764588038
31
0
0
LINE
5
124
100
AcDbEntity
8
0
100
AcDbLine
10
0.38966632199993967
20
-25.65691764588038
30
0
11
-0.96949542183862847
21
-26.96055165099326
31
0
0
LINE
5
125
100
AcDbEntity
8
0
100
AcDbLine
10
-0.96949542183862847
20
-26.96055165099326
30
0
11
7.6714656375784447
21
-35.969570789721175
31
0
0
LINE
5
126
100
AcDbEntity
8
0
100
AcDbLine
10
7.6714656375784447
20
-35.969570789721175
30
0
11
7.6714656375784447
21
-45
31
0
0
LINE
5
127
100
AcDbEntity
8
0
100
AcDbLine
10
7.6714656375784447
20
-45
30
0
11
-0.2899145499193444
21
-40.484785394860587
31
0
0
LINE
5
128
100
AcDbEntity
8
0
100
AcDbLine
10
-0.2899145499193444
20
-40.484785394860587
30
0
11
-3.7543953836364885
21
-28.779543736713201
31
0
0
LINE
5
129
100
AcDbEntity
8
0
100
AcDbLine
10
-3.7543953836364885
20
-28.779543736713201
30
0
11
-5.9735407952913455
21
-28.779543736713201
31
0
0
LINE
5
130
100
AcDbEntity
8
0
100
AcDbLine
10
-5.9735407952913455
20
-28.779543736713201
30
0
11
-5.9735407952913455
21
-35
31
0
0
LINE
5
131
100
AcDbEntity
8
0
100
AcDbLine
10
-5.9735407952913455
20
-35
30
0
11
-9.0803443716081667
21
-38.321869006829132
31
0
0
LINE
5
132
100
AcDbEntity
8
0
100
AcDbLine
10
-10.000000149011612
20
-35.500000528991222
30
0
11
-9.0803443716081667
21
-38.321869006829132
31
0
0
LINE
5
133
100
AcDbEntity
8
0
100
AcDbLine
10
-10.000000149011612
20
-35.500000528991222
30
0
11
-14.885343633288066
21
-32.598490336364435
31
0
0
LINE
5
134
100
AcDbEntity
8
0
100
AcDbLine
10
-14.885343633288066
20
-32.598490336364435
30
0
11
-14.885343633288066
21
-36.660934503414566
31
0
0
LINE
5
135
100
AcDbEntity
8
0
100
AcDbLine
10
-14.885343633288066
20
-36.660934503414566
30
0
11
-8.0000001192092896
21
-41.000000610947609
31
0
0
LINE
5
136
100
AcDbEntity
8
0
100
AcDbLine
10
-8.0000001192092896
20
-41.000000610947609
30
0
11
-7.5345356516638535
21
-42.411683210221263
31
0
0
LINE
5
137
100
AcDbEntity
8
0
100
AcDbLine
10
-7.5345356516638535
20
-42.411683210221263
30
0
11
-9.2444825462237787
21
-42.975492327948459
31
0
0
LINE
5
138
100
AcDbEntity
8
0
100
AcDbLine
10
-9.2444825462237787
20
-42.975492327948459
30
0
11
-14.507351219792181
21
-39.971197761376352
31
0
0
LINE
5
139
100
AcDbEntity
8
0
100
AcDbLine
10
-14.507351219792181
20
-39.971197761376352
30
0
11
-13.897229857580955
21
-48.687217221536763
31
0
0
LINE
5
140
100
AcDbEntity
8
0
100
AcDbLine
10
-13.897229857580955
20
-48.687217221536763
30
0
11
-16.022891187658768
21
-53.747999952895348
31
0
0
LINE
5
141
100
AcDbEntity
8
0
100
AcDbLine
10
-16.022891187658768
20
-53.747999952895348
30
0
11
-18.668562633694137
21
-48.687217221536763
31
0
0
LINE
5
142
100
AcDbEntity
8
0
100
AcDbLine
10
-18.668562633694137
20
-48.687217221536763
30
0
11
-17.793771026666111
21
-39.971197761376352
31
0
0
LINE
5
143
100
AcDbEntity
8
0
100
AcDbLine
10
-17.793771026666111
20
-39.971197761376352
30
0
11
-23.051313623431177
21
-42.719731152937676
31
0
0
LINE
5
144
100
AcDbEntity
8
0
100
AcDbLine
10
-23.051313623431177
20
-42.719731152937676
30
0
11
-24.700176197922524
21
-42.554241487855961
31
0
0
LINE
5
145
100
AcDbEntity
8
0
100
AcDbLine
10
-24.700176197922524
20
-42.554241487855961
30
0
11
-24.285365413110146
21
-40.936359574905779
31
0
0
LINE
5
146
100
AcDbEntity
8
0
100
AcDbLine
10
-24.285365413110146
20
-40.936359574905779
30
0
11
-17.51473507370045
21
-36.901344057821198
31
0
0
LINE
5
147
100
AcDbEntity
8
0
100
AcDbLine
10
-17.51473507370045
20
-36.901344057821198
30
0
11
-17.51473507370045
21
-32.737644394121759
31
0
0
LINE
5
148
100
AcDbEntity
8
0
100
AcDbLine
10
-17.51473507370045
20
-32.737644394121759
30
0
11
-22.500000335276127
21
-35.500000528991222
31
0
0
LINE
5
149
100
AcDbEntity
8
0
100
AcDbLine
10
-22.500000335276127
20
-35.500000528991222
30
0
11
-23.288389698256282
21
-38.093052203022005
31
0
0
LINE
5
150
100
AcDbEntity
8
0
100
AcDbLine
10
-23.288389698256282
20
-38.093052203022005
30
0
11
-26.592988629719336
21
-35.243434283861831
31
0
0
LINE
5
151
100
AcDbEntity
8
0
100
AcDbLine
10
-26.592988629719336
20
-35.243434283861831
30
0
11
-26.592988629719336
21
-29.000000432133675
31
0
0
LINE
5
152
100
AcDbEntity
8
0
100
AcDbLine
10
-26.592988629719336
20
-29.000000432133675
30
0
11
-28.532644524273746
21
-28.658182790004282
31
0
0
LINE
5
153
100
AcDbEntity
8
0
100
AcDbLine
10
-28.532644524273746
20
-28.658182790004282
30
0
11
-32.000000476837158
21
-41.000000610947609
31
0
0
LINE
5
154
100
AcDbEntity
8
0
100
AcDbLine
10
-32.000000476837158
20
-41.000000610947609
30
0
11
-39.476793241971713
21
-44.399988695531498
31
0
0
LINE
5
155
100
AcDbEntity
8
0
100
AcDbLine
10
-39.476793241971713
20
-44.399988695531498
30
0
11
-40.000000596046448
21
-36.000000536441803
31
0
0
LINE
5
156
100
AcDbEntity
8
0
100
AcDbLine
10
-40.000000596046448
20
-36.000000536441803
30
0
11
-31.261925421306142
21
-27.112071606217377
31
0
0
LINE
5
157
100
AcDbEntity
8
0
100
AcDbLine
10
-31.261925421306142
20
-27.112071606217377
30
0
11
-32.500000484287739
21
-25.50000037997961
31
0
0
LINE
5
158
100
AcDbEntity
8
0
100
AcDbLine
10
-32.500000484287739
20
-25.50000037997961
30
0
11
-37.945452661062021
21
-28.569367855515186
31
0
0
LINE
5
159
100
AcDbEntity
8
0
100
AcDbLine
10
-37.945452661062021
20
-28.569367855515186
30
0
11
-42.081687272123681
21
-27.31199271074636
31
0
0
LINE
5
160
100
AcDbEntity
8
0
100
AcDbLine
10
-42.081687272123681
20
-27.31199271074636
30
0
11
-40.265588462144834
21
-25.277201373911407
31
0
0
LINE
5
161
100
AcDbEntity
8
0
100
AcDbLine
10
-40.265588462144834
20
-25.277201373911407
30
0
11
-40.265588462144834
21
-19.369325799737091
31
0
0
LINE
5
162
100
AcDbEntity
8
0
100
AcDbLine
10
-40.265588462144834
20
-19.369325799737091
30
0
11
-43.942694257763115
21
-21.441952381843965
31
0
0
LINE
5
163
100
AcDbEntity
8
0
100
AcDbLine
10
-43.942694257763115
20
-21.441952381843965
30
0
11
-43.942694257763115
21
-29.397100014028243
31
0
0
LINE
5
164
100
AcDbEntity
8
0
100
AcDbLine
10
-43.942694257763115
20
-29.397100014028243
30
0
11
-45.14002904990739
21
-30.73861648271345
31
0
0
LINE
5
165
100
AcDbEntity
8
0
100
AcDbLine
10
-45.14002904990739
20
-30.73861648271345
30
0
11
-46.385369767480178
21
-29.397100014028243
31
0
0
LINE
5
166
100
AcDbEntity
8
0
100
AcDbLine
10
-46.385369767480178
20
-29.397100014028243
30
0
11
-46.385369767480178
21
-27.000000402331352
31
0
0
LINE
5
167
100
AcDbEntity
8
0
100
AcDbLine
10
-46.385369767480178
20
-27.000000402331352
30
0
11
-46.385369767480178
21
-23.393101559148274
31
0
0
LINE
5
168
100
AcDbEntity
8
0
100
AcDbLine
10
-46.385369767480178
20
-23.393101559148274
30
0
11
-53.739740920194706
21
-28.732893256999475
31
0
0
LINE
5
169
100
AcDbEntity
8
0
100
AcDbLine
10
-53.739740920194706
20
-28.732893256999475
30
0
11
-59.157927845695554
21
-28.732893256999475
31
0
0
LINE
5
170
100
AcDbEntity
8
0
100
AcDbLine
10
-59.157927845695554
20
-28.732893256999475
30
0
11
-56.220506049133633
21
-24.196662203732373
31
0
0
LINE
5
171
100
AcDbEntity
8
0
100
AcDbLine
10
-56.220506049133633
20
-24.196662203732373
30
0
11
-48.061043296038896
21
-20.628317768534956
31
0
0
LINE
5
172
100
AcDbEntity
8
0
100
AcDbLine
10
-48.061043296038896
20
-20.628317768534956
30
0
11
-53.129456092529495
21
-17.650909354453031
31
0
0
LINE
5
173
100
AcDbEntity
8
0
100
AcDbLine
10
-53.129456092529495
20
-17.650909354453031
30
0
11
-53.946063802623037
21
-15.783634399525761
31
0
0
LINE
5
174
100
AcDbEntity
8
0
100
AcDbLine
10
-53.946063802623037
20
-15.783634399525761
30
0
11
-51.902127433289621
21
-15.468991738026583
31
0
0
LINE
5
175
100
AcDbEntity
8
0
100
AcDbLine
10
-51.902127433289621
20
-15.468991738026583
30
0
11
-45.308568684223701
21
-19.342337909002527
31
0
0
LINE
5
176
100
AcDbEntity
8
0
100
AcDbLine
10
-45.308568684223701
20
-19.342337909002527
30
0
11
-41.538018755263991
21
-17.150886567355304
31
0
0
LINE
5
177
100
AcDbEntity
8
0
100
AcDbLine
10
-41.538018755263991
20
-17.150886567355304
30
0
11
-46.60283477513314
21
-14.175591057925443
31
0
0
LINE
5
178
100
AcDbEntity
8
0
100
AcDbLine
10
-46.60283477513314
20
-14.175591057925443
30
0
11
-49.280814764555629
21
-14.892387590491955
31
0
0
LINE
5
179
100
AcDbEntity
8
0
100
AcDbLine
10
-49.280814764555629
20
-14.892387590491955
30
0
11
-48.318939955472793
21
-10.707048065989435
31
0
0
LINE
5
180
100
AcDbEntity
8
0
100
AcDbLine
10
-48.318939955472793
20
-10.707048065989435
30
0
11
-43.000000640749931
21
-7.500000111758709
31
0
0
LINE
5
181
100
AcDbEntity
8
0
100
AcDbLine
10
-43.000000640749931
20
-7.500000111758709
30
0
11
-43.742048825503005
21
-5.7073918918859015
31
0
0
LINE
5
182
100
AcDbEntity
8
0
100
AcDbLine
10
-43.742048825503005
20
-5.7073918918859015
30
0
11
-55.542707883497386
21
-8.7035093785729458
31
0
0
LINE
5
183
100
AcDbEntity
8
0
100
AcDbLine
10
-55.542707883497386
20
-8.7035093785729458
30
0
11
-63.000000938773155
21
-4.0000000596046448
31
0
0
LINE
5
184
100
AcDbEntity
8
0
100
AcDbLine
10
-63.000000938773155
20
-4.0000000596046448
30
0
11
-55.861108811647554
21
0.64751552829773074
31
0
0
LINE
5
185
100
AcDbEntity
8
0
100
AcDbLine
10
-55.861108811647554
20
0.64751552829773074
30
0
11
-43.511874624957827
21
-2.5858801735800219
31
0
0
LINE
5
186
100
AcDbEntity
8
0
100
AcDbLine
10
-43.511874624957827
20
-2.5858801735800219
30
0
11
-42.492181104603631
21
-0.96918232264114557
31
0
0
LINE
5
187
100
AcDbEntity
8
0
100
AcDbLine
10
-42.492181104603631
20
-0.96918232264114557
30
0
11
-48.25502485754388
21
2.6655936067473807
31
0
0
LINE
5
188
100
AcDbEntity
8
0
100
AcDbLine
10
-48.25502485754388
20
2.6655936067473807
30
0
11
-49.178404286161445
21
6.8167411663642286
31
0
0
LINE
5
189
100
AcDbEntity
8
0
100
AcDbLine
10
-49.178404286161445
20
6.8167411663642286
30
0
11
-46.510404821931139
21
6.1880746259421446
31
0
0
LINE
5
190
100
AcDbEntity
8
0
100
AcDbLine
10
-46.510404821931139
20
6.1880746259421446
30
0
11
-41.155444014008623
21
9.0620337030691793
31
0
0
LINE
5
191
100
AcDbEntity
8
0
100
AcDbLine
10
-41.155444014008623
20
9.0620337030691793
30
0
11
-45.253742359669232
21
11.26826403897514
31
0
0
LINE
5
192
100
AcDbEntity
8
0
100
AcDbLine
10
-45.253742359669232
20
11.26826403897514
30
0
11
-51.988251411193559
21
7.3370815524139799
31
0
0
LINE
5
193
100
AcDbEntity
8
0
100
AcDbLine
10
-51.988251411193559
20
7.3370815524139799
30
0
11
-53.759559111649757
21
7.7544586542456138
31
0
0
LINE
5
194
100
AcDbEntity
8
0
100
AcDbLine
10
-53.759559111649757
20
7.7544586542456138
30
0
11
-53.239439151347312
21
9.488419088058377
31
0
0
LINE
5
195
100
AcDbEntity
8
0
100
AcDbLine
10
-53.239439151347312
20
9.488419088058377
30
0
11
-47.924774970709592
21
12.422113715770383
31
0
0
LINE
5
196
100
AcDbEntity
8
0
100
AcDbLine
10
-47.924774970709592
20
12.422113715770383
30
0
11
-56.000000834465027
21
16.000000238418579
31
0
0
LINE
5
197
100
AcDbEntity
8
0
100
AcDbLine
10
-56.000000834465027
20
16.000000238418579
30
0
11
-59.00000087916851
21
20.500000305473804
31
0
0
LINE
5
198
100
AcDbEntity
8
0
100
AcDbLine
10
-59.00000087916851
20
20.500000305473804
30
0
11
-53.699998799711466
21
20.399999544024467
31
0
0
LINE
5
199
100
AcDbEntity
8
0
100
AcDbLine
10
-53.539905685933633
20
20.39697889742083
30
0
11
-46.419804399596813
21
15.187271021957853
31
0
0
LINE
5
200
100
AcDbEntity
8
0
100
AcDbLine
10
-46.419804399596813
20
15.187271021957853
30
0
11
-46.304390844199702
21
21.304145281081162
31
0
0
LINE
5
201
100
AcDbEntity
8
0
100
AcDbLine
10
-46.304390844199702
20
21.304145281081162
30
0
11
-45.325437143207253
21
22.642080089005702
31
0
0
LINE
5
202
100
AcDbEntity
8
0
100
AcDbLine
10
-45.325437143207253
20
22.642080089005702
30
0
11
-44.070814498938375
21
21.304145281081162
31
0
0
LINE
5
203
100
AcDbEntity
8
0
100
AcDbLine
10
-44.070814498938375
20
21.304145281081162
30
0
11
-43.925043802128613
21
13.361879302184779
31
0
0
LINE
5
204
100
AcDbEntity
8
0
100
AcDbLine
10
-43.925043802128613
20
13.361879302184779
30
0
11
-40.304973547089169
21
11.38414451612994
31
0
0
LINE
5
205
100
AcDbEntity
8
0
100
AcDbLine
10
-40.304973547089169
20
11.38414451612994
30
0
11
-40.117090316418071
21
17.087877362682889
31
0
0
LINE
5
206
100
AcDbEntity
8
0
100
AcDbLine
10
-40.117090316418071
20
17.087877362682889
30
0
11
-42.115008674608887
21
19.218465812545162
31
0
0
LINE
5
207
100
AcDbEntity
8
0
100
AcDbLine
10
-42.115008674608887
20
19.218465812545162
30
0
11
-38.067840308366868
21
20.444534132955265
31
0
0
LINE
5
208
100
AcDbEntity
8
0
100
AcDbLine
10
-38.067840308366868
20
20.444534132955265
30
0
11
-32.736006089412044
21
17.498975368637566
31
0
0
LINE
5
209
100
AcDbEntity
8
0
100
AcDbLine
10
-32.736006089412044
20
17.498975368637566
30
0
11
-31.165428028522509
21
18.971754750796418
31
0
0
LINE
5
210
100
AcDbEntity
8
0
100
AcDbLine
10
-31.165428028522509
20
18.971754750796418
30
0
11
-40.091424491487885
21
27.897140349102166
31
0
0
LINE
5
211
100
AcDbEntity
8
0
100
AcDbLine
10
-40.091424491487885
20
27.897140349102166
30
0
11
-39.720921264892269
21
36.605805726999314
31
0
0
LINE
5
212
100
AcDbEntity
8
0
100
AcDbLine
10
-39.720921264892269
20
36.605805726999314
30
0
11
-31.703938362777127
21
32.493565085443784
31
0
0
LINE
5
213
100
AcDbEntity
8
0
100
AcDbLine
10
-31.703938362777127
20
32.493565085443784
30
0
11
-28.500000424683094
21
20.500000305473804
31
0
0
LINE
5
214
100
AcDbEntity
8
0
100
AcDbLine
10
-28.500000424683094
20
20.500000305473804
30
0
11
-26.500000394880772
21
20.500000305473804
31
0
0
LINE
5
215
100
AcDbEntity
8
0
100
AcDbLine
10
-26.500000394880772
20
20.500000305473804
30
0
11
-26.500000394880772
21
27.000000402331352
31
0
0
LINE
5
216
100
AcDbEntity
8
0
100
AcDbLine
10
-26.500000394880772
20
27.000000402331352
30
0
11
-23.294101772700383
21
29.962127371589091
31
0
0
LINE
5
217
100
AcDbEntity
8
0
100
AcDbLine
10
-23.294101772700383
20
29.962127371589091
30
0
11
-22.500000335276127
21
27.500000409781933
31
0
0
LINE
5
218
100
AcDbEntity
8
0
100
AcDbLine
10
-22.500000335276127
20
27.500000409781933
30
0
11
-17.500000260770321
21
24.500000365078449
31
0
0
LINE
5
219
100
AcDbEntity
8
0
100
AcDbLine
10
-17.500000260770321
20
24.500000365078449
30
0
11
-17.175492027345165
21
24.305295425023353
31
0
0
LINE
5
220
100
AcDbEntity
8
0
100
AcDbLine
10
-17.175492027345165
20
24.305295425023353
30
0
11
-17.175492027345165
21
28.731063890685512
31
0
0
LINE
5
221
100
AcDbEntity
8
0
100
AcDbLine
10
-17.175492027345165
20
28.731063890685512
30
0
11
-24.13160174370288
21
32.904729720500143
31
0
0
LINE
5
222
100
AcDbEntity
8
0
100
AcDbLine
10
-24.13160174370288
20
32.904729720500143
30
0
11
-24.741923286403523
21
34.476458286928619
31
0
0
LINE
5
223
100
AcDbEntity
8
0
100
AcDbLine
10
-24.741923286403523
20
34.476458286928619
30
0
11
-23.111855533102204
21
34.764117302217088
31
0
0
LINE
5
224
100
AcDbEntity
8
0
100
AcDbLine
10
-23.111855533102204
20
34.764117302217088
30
0
11
-18.024944270096569
21
31.711970544413703
31
0
0
LINE
5
225
100
AcDbEntity
8
0
100
AcDbLine
10
-18.024944270096569
20
31.711970544413703
30
0
11
-17.781703190992353
21
31.566025896951174
31
0
0
LINE
5
226
100
AcDbEntity
8
0
100
AcDbLine
10
-17.781703190992353
20
31.566025896951174
30
0
11
-18.533282873094088
21
40.613183946415944
31
0
0
LINE
5
227
100
AcDbEntity
8
0
100
AcDbLine
10
-18.533282873094088
20
40.613183946415944
30
0
11
-16.114792916016285
21
45.45517624595167
31
0
0
LINE
5
228
100
AcDbEntity
8
0
100
AcDbLine
10
-16.114792916016285
20
45.45517624595167
30
0
11
-13.723912316057763
21
40.613183946415944
31
0
0
LINE
5
229
100
AcDbEntity
8
0
100
AcDbLine
10
-13.723912316057763
20
40.613183946415944
30
0
11
-14.56775252780783
21
31.742772805013111
31
0
0
LINE
5
230
100
AcDbEntity
8
0
100
AcDbLine
10
-14.56775252780783
20
31.742772805013111
30
0
11
-9.2751914443448769
21
34.825786748898103
31
0
0
LINE
5
231
100
AcDbEntity
8
0
100
AcDbLine
10
-9.2751914443448769
20
34.825786748898103
30
0
11
-7.500000111758709
21
34.500000514090061
31
0
0
LINE
5
232
100
AcDbEntity
8
0
100
AcDbLine
10
-7.500000111758709
20
34.500000514090061
30
0
11
-8.0012479643955086
21
32.796365158746205
31
0
0
LINE
5
233
100
AcDbEntity
8
0
100
AcDbLine
10
-8.0012479643955086
20
32.796365158746205
30
0
11
-14.846873778361394
21
28.808662512286311
31
0
0
LINE
5
234
100
AcDbEntity
8
0
100
AcDbLine
10
-14.846873778361394
20
28.808662512286311
30
0
11
-14.846873778361394
21
24.31915997971387
31
0
0
LINE
5
235
100
AcDbEntity
8
0
100
AcDbLine
10
-14.846873778361394
20
24.31915997971387
30
0
11
-9.9534290385716098
21
27.169681330056289
31
0
0
LINE
5
236
100
AcDbEntity
8
0
100
AcDbLine
10
-9.9534290385716098
20
27.169681330056289
30
0
11
-9.0000001341104507
21
30.000000447034836
31
0
0
LINE
5
237
100
AcDbEntity
8
0
100
AcDbLine
10
-9.0000001341104507
20
30.000000447034836
30
0
11
-5.8484605534299527
21
27.169681330056289
31
0
0
LINE
5
238
100
AcDbEntity
8
0
100
AcDbLine
10
-5.8484605534299527
20
27.169681330056289
30
0
11
-5.8484605534299527
21
21.000000312924385
31
0
0
LINE
5
239
100
AcDbEntity
8
0
100
AcDbLine
10
-5.8484605534299527
20
21.000000312924385
30
0
11
-3.7445413928330873
21
20.593118447586253
31
0
0
LINE
5
240
100
AcDbEntity
8
0
100
AcDbLine
10
-3.7445413928330873
20
20.593118447586253
30
0
11
-0.27494809650193242
21
32.564758894356956
31
0
0
LINE
5
241
100
AcDbEntity
8
0
100
AcDbLine
10
-0.27494809650193242
20
32.564758894356956
30
0
11
7.5247570430607951
21
36.73669420156493
31
0
0
LINE
5
242
100
AcDbEntity
8
0
100
AcDbLine
10
7.5247570430607951
20
36.73669420156493
30
0
11
7.766812848201246
21
27.915269467380668
31
0
0
LINE
5
243
100
AcDbEntity
8
0
100
AcDbLine
10
7.766812848201246
20
27.915269467380668
30
0
11
-1.0000000149011612
21
19.000000283122063
31
0
0
LINE
5
244
100
AcDbEntity
8
0
100
AcDbLine
10
-1.0000000149011612
20
19.000000283122063
30
0
11
0.003398212938936912
21
17.124081857160142
31
0
0
LINE
5
245
100
AcDbEntity
8
0
100
AcDbLine
10
0.003398212938936912
20
17.124081857160142
30
0
11
5.9558572083631356
21
20.307955273317276
31
0
0
LINE
5
246
100
AcDbEntity
8
0
100
AcDbLine
10
5.9558572083631356
20
20.307955273317276
30
0
11
9.6226559286624891
21
19.257002253003069
31
0
0
LINE
5
247
100
AcDbEntity
8
0
100
AcDbLine
10
9.6226559286624891
20
19.257002253003069
30
0
11
8.0629180334885433
21
17.124081857160142
31
0
0
LINE
5
248
100
AcDbEntity
8
0
100
AcDbLine
10
8.0629180334885433
20
17.124081857160142
30
0
11
8.0629180334885433
21
11.278000595932784
31
0
0
LINE
5
249
100
AcDbEntity
8
0
100
AcDbLine
10
8.0629180334885433
20
11.278000595932784
30
0
11
11.531068770742205
21
13.362260183868937
31
0
0
LINE
5
250
100
AcDbEntity
8
0
100
AcDbLine
10
11.531068770742205
20
13.362260183868937
30
0
11
11.531068770742205
21
21.500000320374966
31
0
0
LINE
5
251
100
AcDbEntity
8
0
100
AcDbLine
10
11.531068770742205
20
21.500000320374966
30
0
11
12.828579004281941
21
22.718914651141795
31
0
0
LINE
5
252
100
AcDbEntity
8
0
100
AcDbLine
10
12.828579004281941
20
22.718914651141795
30
0
11
13.973658331861085
21
21.500000320374966
31
0
0
LINE
5
253
100
AcDbEntity
8
0
100
AcDbLine
10
13.973658331861085
20
21.500000320374966
30
0
11
13.973658331861085
21
15.219871828893744
31
0
0
LINE
5
254
100
AcDbEntity
8
0
100
AcDbLine
10
13.973658331861085
20
15.219871828893744
30
0
11
21.313298365430565
21
20.411659799711227
31
0
0
LINE
5
255
100
AcDbEntity
8
0
100
AcDbLine
10
21.313298365430565
20
20.411659799711227
30
0
11
26.606886100381729
21
20.691609151078836
31
0
0
LINE
5
256
100
AcDbEntity
8
0
100
AcDbLine
10
26.606886100381729
20
20.691609151078836
30
0
11
23.960092232906149
21
16.110619765063412
31
0
0
LINE
5
257
100
AcDbEntity
8
0
100
AcDbLine
10
23.960092232906149
20
16.110619765063412
30
0
11
15.553503593057947
21
12.488115931080364
31
0
0
LINE
5
258
100
AcDbEntity
8
0
100
AcDbLine
10
15.553503593057947
20
12.488115931080364
30
0
11
20.954185244198452
21
9.3677220881991836
31
0
0
LINE
5
259
100
AcDbEntity
8
0
100
AcDbLine
10
20.954185244198452
20
9.3677220881991836
30
0
11
21.43673712191347
21
7.7810668452533971
31
0
0
LINE
5
260
100
AcDbEntity
8
0
100
AcDbLine
10
21.43673712191347
20
7.7810668452533971
30
0
11
19.756797912982048
21
7.2701443727622284
31
0
0
LINE
5
261
100
AcDbEntity
8
0
100
AcDbLine
10
19.756797912982048
20
7.2701443727622284
30
0
11
12.788133821249737
21
11.29648362576312
31
0
0
LINE
5
262
100
AcDbEntity
8
0
100
AcDbLine
10
12.788133821249737
20
11.29648362576312
30
0
11
9.2886591508770522
21
9.2833139992626741
31
0
0
LINE
5
263
100
AcDbEntity
8
0
100
AcDbLine
10
9.2886591508770522
20
9.2833139992626741
30
0
11
14.291745875032444
21
6.1183316677593522
31
0
0
LINE
5
264
100
AcDbEntity
8
0
100
AcDbLine
10
14.291745875032444
20
6.1183316677593522
30
0
11
16.781086586563418
21
6.6796535929084939
31
0
0
LINE
5
265
100
AcDbEntity
8
0
100
AcDbLine
10
16.781086586563418
20
6.6796535929084939
30
0
11
16.000116951573311
21
2.6527789124907408
31
0
0
LINE
5
266
100
AcDbEntity
8
0
100
AcDbLine
10
16.000116951573311
20
2.6527789124907408
30
0
11
10.777382517576953
21
-0.59312613293690308
31
0
0
LINE
5
267
100
AcDbEntity
8
0
100
AcDbLine
10
10.777382517576953
20
-0.59312613293690308
30
0
11
11.221639723157381
21
-2.5633102620327142
31
0
0
LINE
5
268
100
AcDbEntity
8
0
100
AcDbLine
10
11.221639723157381
20
-2.5633102620327142
30
0
11
23.499635819060735
21
0.71275559351903439
31
0
0
LINE
5
269
100
AcDbEntity
8
0
100
AcDbLine
10
23.499635819060735
20
0.71275559351903439
30
0
11
31.000000461935997
21
-4.0000000596046448
31
0
0
LINE
5
270
100
AcDbEntity
8
0
100
AcDbLine
10
31.000000461935997
20
-4.0000000596046448
30
0
11
23.499635819060735
21
-8.6614416367187079
31
0
0
LINE
5
271
100
AcDbEntity
8
0
100
AcDbLine
10
23.499635819060735
20
-8.6614416367187079
30
0
11
11.151039029924066
21
-5.6460915701824854
31
0
0
LWPOLYLINE
5
272
100
AcDbEntity
8
0
100
AcDbPolyline
90
10
70
1
43
0.0
10
2.0000000298023224
20
-18.500000275671482
10
2.0000000298023224
20
-22.500000335276127
10
0.85469687294065677
20
-23.758437189359821
10
-0.52804908932105743
20
-22.500000335276127
10
-0.52804908932105743
20
-17.00000025331974
10
-3.4132149192082695
20
-14.675445426581335
10
-4.2886840047772807
20
-21.989260078939111
10
-3.0000000447034836
20
-24.000000357627869
10
5.5000000819563866
20
-24.000000357627869
10
5.5000000819563866
20
-18.500000275671482
0
LWPOLYLINE
5
273
100
AcDbEntity
8
0
100
AcDbPolyline
90
10
70
1
43
0.0
10
-13.417753098021928
20
-20.500000305473804
10
-13.000000193715096
20
-24.000000357627869
10
-8.0000001192092896
20
-27.000000402331352
10
-7.5299758446200249
20
-28.634178529959403
10
-9.0778059990146716
20
-29.079367296842911
10
-13.000000193715096
20
-27.000000402331352
10
-14.530729423161999
20
-29.887329864602698
10
-9.7469516077201597
20
-32.737325229595797
10
-5.3992486176296666
20
-25.439613321851912
10
-6.5000000968575478
20
-23.500000350177288
0
LWPOLYLINE
5
274
100
AcDbEntity
8
0
100
AcDbPolyline
90
10
70
1
43
0.0
10
-17.691446201393511
20
-29.895924347390761
10
-22.633408763036318
20
-32.876002274009537
10
-27.0583010485893
20
-25.538055900467501
10
-25.911494482316971
20
-23.637760701491327
10
-19.22292186635261
20
-20.51458300807678
10
-19.445590108164819
20
-24.032741228709664
10
-24.255224131308502
20
-26.971962020630798
10
-24.811894735839026
20
-28.419305592410147
10
-23.263087903357615
20
-29.015000527979922
10
-19.601457877433365
20
-26.971962020630798
0
LWPOLYLINE
5
275
100
AcDbEntity
8
0
100
AcDbPolyline
90
10
70
1
43
0.0
10
-37.828932688532376
20
-23.940819344404517
10
-29.413666503907898
20
-24.08613791274183
10
-28.079377830992556
20
-22.170574966477229
10
-28.746522167450227
20
-14.818308586099644
10
-32.000000476837158
20
-17.00000025331974
10
-31.84183119311307
20
-22.487969033429106
10
-33.051083683583066
20
-23.802373914374755
10
-34.312912369290892
20
-22.487969033429106
10
-34.312912369290892
20
-18.500000275671482
10
-37.785929261179668
20
-18.354168672995424
0
LWPOLYLINE
5
276
100
AcDbEntity
8
0
100
AcDbPolyline
90
10
70
1
43
0.0
10
-39.340085310565847
20
-15.635956018579416
10
-37.711761813069849
20
-12.655452515060819
10
-41.370549215701033
20
-10.221385604885572
10
-41.799999065697193
20
-8.7999998033046722
10
-40.299999099224806
20
-8.4999998100101948
10
-35.299999210983515
20
-11.299999747425318
10
-31.592280931452514
20
-9.8999997787177563
10
-37.79999915510416
20
-5.2955860147356155
10
-40.000000596046448
20
-5.2955860147356155
10
-44.442666560356102
20
-12.914848282158552
0
LWPOLYLINE
5
277
100
AcDbEntity
8
0
100
AcDbPolyline
90
10
70
1
43
0.0
10
-31.8114519866131
20
1.7226412360223053
10
-37.581495720115726
20
-2.7270073621926638
10
-40.000000596046448
20
-2.7270073621926638
10
-44.486277844509878
20
4.6612483329120566
10
-39.608360190709043
20
7.6232046989626268
10
-37.809808813452499
20
4.6612483329120566
10
-41.280629712336335
20
2.2188497560179341
10
-41.646989498870461
20
0.96712048535969597
10
-40.190182391539999
20
0.54073791736053356
10
-35.38834314557927
20
3.4400490444649954
0
LWPOLYLINE
5
278
100
AcDbEntity
8
0
100
AcDbPolyline
90
10
70
1
43
0.0
10
-28.928188892566045
20
6.7202394466629425
10
-28.000000417232513
20
14.000000208616257
10
-28.928188892566045
20
15.929298289108463
10
-38.000000566244125
20
15.929298289108463
10
-38.000000566244125
20
10.000000149011612
10
-34.53609338169705
20
10.000000149011612
10
-34.53609338169705
20
14.44485298316202
10
-33.244076170965883
20
15.65440101022949
10
-32.111733337115488
20
14.44485298316202
10
-32.111733337115488
20
8.8094587661431216
0
LWPOLYLINE
5
279
100
AcDbEntity
8
0
100
AcDbPolyline
90
10
70
1
43
0.0
10
-19.500000290572643
20
16.000000238418579
10
-19.076295568061099
20
12.318792687394819
10
-25.808920359989514
20
15.285712087227679
10
-27.000000402331352
20
17.00000025331974
10
-22.442607964025303
20
24.742514286169389
10
-17.699879609250988
20
21.799172613952081
10
-19.515204085596086
20
18.874065091320546
10
-23.118666506573369
20
20.99513226916557
10
-24.86974465039529
20
20.619073062211783
10
-24.318808930676255
20
18.874065091320546
0
LWPOLYLINE
5
280
100
AcDbEntity
8
0
100
AcDbPolyline
90
10
70
1
43
0.0
10
-5.4536472942813718
20
17.437032664869562
10
-6.3637568274351874
20
15.384565043149422
10
-13.296650035871579
20
12.306253386893879
10
-13.000000193715096
20
16.000000238418579
10
-8.0501362565143086
20
18.757323901307668
10
-7.5147777076002997
20
20.52400711272389
10
-9.0504102551181056
20
20.989350308941411
10
-12.745009377774208
20
18.931272407198129
10
-14.795653972830802
20
21.835635557563208
10
-9.7283509197290527
20
24.658378726388378
0
LWPOLYLINE
5
281
100
AcDbEntity
8
0
100
AcDbPolyline
90
10
70
1
43
0.0
10
0.77039090067825189
20
15.69013900616925
10
2.0663468589121017
20
14.415763198793837
10
2.0663468589121017
20
10.329951151257436
10
5.5739983822436434
20
10.329951151257436
10
5.5739983822436434
20
16.000000238418579
10
-3.0000000447034836
20
16.000000238418579
10
-4.2041862453417211
20
14.057165056360564
10
-3.6020931450226024
20
6.4983077265392843
10
-0.37306748968387371
20
8.8243745132831268
10
-0.37306748968387371
20
14.500000216066837
0
LWPOLYLINE
5
282
100
AcDbEntity
8
0
100
AcDbPolyline
90
10
70
1
43
0.0
10
6.9976883527469935
20
7.6613411199112047
10
5.4608144701340722
20
4.5595432168786072
10
8.9004845883629926
20
2.4371935694607605
10
9.5103551767014558
20
0.90031968684783692
10
7.8389964658755593
20
0.23708210318676773
10
3.0041593706819167
20
3.2202794597956137
10
-0.90567816505419896
20
1.6687566281542987
10
5.4215779182787385
20
-2.6125349019817024
10
7.6075589410854549
20
-2.6125349019817024
10
12.169390941857152
20
4.5351483933450698
0
LWPOLYLINE
5
283
100
AcDbEntity
8
0
100
AcDbPolyline
90
36
70
1
43
0.0
10
-26.942644556911766
20
0.96130674568168373
10
-24.512566480287251
20
-0.54487685309636791
10
-22.643909229098014
20
-0.13396867032260174
10
-22.98859017338431
20
1.433511786112966
10
-25.727605518599511
20
3.1311774000075561
10
-25.141765651653078
20
11.583626611662501
10
-17.039820755997788
20
7.6365252522406912
10
-17.222401386030871
20
5.002267002745886
10
-16.027077644040876
20
3.5855528044130454
10
-15.014334532083961
20
5.002267002745886
10
-14.829044358617111
20
7.67561832110278
10
-7.0681962690374256
20
11.531691067459581
10
-6.4449697386024063
20
2.8584551855721858
10
-8.9378758603424924
20
1.3263566315860893
10
-9.5351346186760555
20
-0.23170969450146683
10
-7.6914227994724493
20
-0.56929073182043766
10
-5.1912521643430276
20
0.96727247101952152
10
2.0000000298023224
20
-4.0000000596046448
10
-5.1912521643430276
20
-9.0179591516795004
10
-8.0000001192092896
20
-7.500000111758709
10
-9.5000001415610313
20
-8.0000001192092896
10
-8.992390732106788
20
-9.5228283475720197
10
-6.3357174664191067
20
-10.958600180633674
10
-6.9507446029691744
20
-19.705153565466382
10
-15.148208335093358
20
-16.150185419207268
10
-15.148208335093358
20
-13.000000193715096
10
-16.133854931688298
20
-11.542388828827166
10
-17.409286921788176
20
-13.000000193715096
10
-17.409286921788176
20
-16.000000238418579
10
-25.125650461892434
20
-19.705153565466382
10
-26.000000387430191
20
-11.000000163912773
10
-23.340045675752606
20
-9.3422686459048769
10
-22.606672281445178
20
-7.7160928585275323
10
-24.670023031591398
20
-7.3334632614975703
10
-27.048839430871041
20
-8.8159843372616269
10
-34.308760790611558
20
-4.2724264852578635
0
ENDSEC
0
SECTION
2
OBJECTS
0
DICTIONARY
5
C
100
AcDbDictionary
3
ACAD_GROUP
350
D
3
ACAD_MLINESTYLE
350
17
0
DICTIONARY
5
D
100
AcDbDictionary
0
DICTIONARY
5
1A
330
C
100
AcDbDictionary
0
DICTIONARY
5
17
100
AcDbDictionary
0
ENDSEC
0
EOF
